<?xml version="1.0" encoding="utf-8"?>
<!DOCTYPE svg PUBLIC "-//W3C//DTD SVG 1.1//EN" "http://www.w3.org/Graphics/SVG/1.1/DTD/svg11.dtd">
<svg xmlns="http://www.w3.org/2000/svg" viewBox="0 0 286 286">
  <path d="M0 189.97V71.5h22.55v98.28h59.16v20.19H0zM145.62 149.43c4.58.79 8.55 2.58 11.93 5.35a28.54 28.54 0 0 1 7.93 10.62 34.97 34.97 0 0 1 2.86 14.27c0 7.02-1.74 13.14-5.23 18.35-3.49 5.21-8.42 9.26-14.79 12.15-6.38 2.89-13.87 4.33-22.47 4.33-8.28 0-15.61-1.37-21.98-4.09a40.83 40.83 0 0 1-15.94-11.93l12.42-15.85a31.4 31.4 0 0 0 10.21 8.43c3.97 2.06 8.85 3.09 14.63 3.09 6.65 0 11.71-1.41 15.2-4.23 3.48-2.82 5.23-7.05 5.23-12.68 0-5.98-2.02-10.58-6.05-13.8-4.03-3.22-10.13-4.83-18.3-4.83h-4.58v-16.68h5.07c6.64 0 11.85-1.6 15.61-4.8s5.64-7.2 5.64-12c0-3.09-.71-5.66-2.12-7.72a12.95 12.95 0 0 0-5.8-4.63 22.2 22.2 0 0 0-8.58-1.54 26.2 26.2 0 0 0-13.4 3.51 27.11 27.11 0 0 0-9.8 9.84l-13.73-15.68a30.53 30.53 0 0 1 9.4-8.92 51.67 51.67 0 0 1 13.73-5.93 60.33 60.33 0 0 1 16.26-2.16c7.41 0 13.92 1.24 19.53 3.72 5.61 2.48 9.99 5.98 13.16 10.5 3.16 4.51 4.74 9.76 4.74 15.74 0 4.4-.87 8.57-2.61 12.52a27.25 27.25 0 0 1-7.27 9.91 23.7 23.7 0 0 1-10.9 5.14zM186.64 189.97V71.5h42.16c12.64 0 23.21 2.65 31.7 7.93 8.5 5.28 14.87 12.4 19.12 21.35s6.37 18.89 6.37 29.79c0 12.01-2.34 22.47-7.03 31.36a50.34 50.34 0 0 1-19.86 20.69c-8.56 4.9-18.66 7.34-30.32 7.34h-42.14zm76.64-59.4c0-7.68-1.36-14.44-4.08-20.28a31.8 31.8 0 0 0-11.76-13.68c-5.12-3.28-11.34-4.93-18.63-4.93H209.2v78.09h19.61c7.41 0 13.67-1.69 18.79-5.09a32.24 32.24 0 0 0 11.69-14.01c2.66-5.94 3.99-12.65 3.99-20.1z"/>
</svg>